<?xml version="1.0" encoding="UTF-8"?>
<svg version="1.1" xmlns="http://www.w3.org/2000/svg" width="500" height="500">
<path d="M0 0 C10.97479019 10.19635626 21.28021245 20.80247617 30 33 C30.4527832 33.62438965 30.90556641 34.2487793 31.37207031 34.89208984 C38.32606376 44.52751633 44.51032098 54.46263753 50 65 C50.4007373 65.76344727 50.80147461 66.52689453 51.21435547 67.31347656 C79.5447497 121.98306199 82.85397308 182.82055683 64.375 241.23046875 C54.39697842 271.52391759 38.82816146 298.00020328 18 322 C16.81194855 323.43704427 15.62432825 324.87444534 14.4375 326.3125 C13.633125 327.199375 12.82875 328.08625 12 329 C11.34 329 10.68 329 10 329 C9.73832031 329.59683594 9.47664063 330.19367188 9.20703125 330.80859375 C7.92132852 333.14283074 6.72102904 334.3599093 4.6875 336.0625 C2.20217848 338.14981629 -0.26442627 340.23744399 -2.6796875 342.40625 C-21.71320536 359.35887172 -44.44036237 372.44638242 -68 382 C-68.61456055 382.2573291 -69.22912109 382.5146582 -69.86230469 382.77978516 C-119.49762759 403.48083504 -181.45093506 403.81295509 -231.421875 383.89453125 C-236.67270081 381.72113854 -241.84788237 379.39691849 -247 377 C-247.72026367 376.66742188 -248.44052734 376.33484375 -249.18261719 375.9921875 C-264.77394613 368.71771255 -279.58334144 359.78157486 -293 349 C-293.96292969 348.24074219 -294.92585938 347.48148437 -295.91796875 346.69921875 C-343.48349747 307.93542285 -372.54377984 252.76879719 -379.22875977 191.83813477 C-380.94934517 173.64105905 -380.98267648 155.06440625 -378 137 C-377.84934082 136.07574219 -377.69868164 135.15148437 -377.54345703 134.19921875 C-373.75396339 111.74619592 -366.98478779 90.4640603 -357 70 C-356.66419922 69.30390625 -356.32839844 68.6078125 -355.98242188 67.890625 C-340.79700553 36.77060669 -316.63755015 6.63614022 -288 -13 C-287.43716309 -13.39654785 -286.87432617 -13.7930957 -286.29443359 -14.20166016 C-276.29421525 -21.24372024 -265.82090335 -27.31313698 -255 -33 C-254.3493457 -33.34772461 -253.69869141 -33.69544922 -253.02832031 -34.05371094 C-231.46332923 -45.44171499 -207.00548403 -52.3097885 -183 -56 C-182.17032715 -56.12842285 -181.3406543 -56.2568457 -180.48583984 -56.38916016 C-115.99000373 -65.84854945 -48.23726576 -43.17627104 0 0 Z M-195 -25 C-195.96824707 -24.76925781 -196.93649414 -24.53851563 -197.93408203 -24.30078125 C-232.79039846 -15.74375082 -263.0085091 2.44634725 -289.25 26.5625 C-289.81654297 27.08046143 -290.38308594 27.59842285 -290.96679688 28.13208008 C-303.1348491 39.4677495 -313.96894761 53.45728351 -322 68 C-322.68776914 69.16544364 -323.37809245 70.32938198 -324.0703125 71.4921875 C-337.14727475 93.70757257 -344.95862793 117.60922375 -349 143 C-349.1959375 144.20398438 -349.391875 145.40796875 -349.59375 146.6484375 C-350.2851965 152.52022177 -350.18599892 158.44937762 -350.18530273 164.35375977 C-350.18749147 166.4294073 -350.20570723 168.50452399 -350.22460938 170.58007812 C-350.28417678 183.7887048 -348.90639136 191.90012236 -340 202 C-329.72069294 212.00745762 -317.76173417 216.79694841 -303.48046875 217.06640625 C-294.15959432 216.73315722 -287.20324304 214.65499395 -280.125 208.5 C-279.42375 207.675 -278.7225 206.85 -278 206 C-277.278125 205.21625 -276.55625 204.4325 -275.8125 203.625 C-269.08290165 193.87868515 -271.7908229 180.86723811 -273.5 169.875 C-279.48930411 130.06025503 -271.08926509 92.87150947 -248 60 C-230.154806 36.05743202 -206.68668519 20.77176356 -178.25 12.25 C-177.5897583 12.05132324 -176.9295166 11.85264648 -176.24926758 11.64794922 C-165.04692171 8.42994611 -154.15831685 7.5934268 -142.5625 7.625 C-141.8115506 7.62554382 -141.0606012 7.62608765 -140.28689575 7.62664795 C-128.14904952 7.66700788 -116.69451 8.50997362 -105 12 C-104.27119629 12.21430664 -103.54239258 12.42861328 -102.79150391 12.64941406 C-81.77674972 19.0304687 -63.82996054 29.82633965 -48 45 C-46.78763672 46.11761719 -46.78763672 46.11761719 -45.55078125 47.2578125 C-33.85492543 58.38448224 -25.38678792 71.75173883 -18 86 C-17.39542969 87.155 -16.79085938 88.31 -16.16796875 89.5 C-3.54932827 115.02212611 2.85130822 143.84376255 6 172 C6.0942627 172.77174561 6.18852539 173.54349121 6.28564453 174.33862305 C7.31767565 183.84014031 7.24281946 193.39150414 7.25 202.9375 C7.25100708 203.86829376 7.25201416 204.79908752 7.25305176 205.75808716 C7.23958744 224.23410555 5.7333075 242.1296538 2.83984375 260.390625 C2.55318848 262.22379272 2.55318848 262.22379272 2.26074219 264.09399414 C1.89106649 266.41139475 1.50369219 268.72607471 1.09472656 271.03686523 C-0.17898734 278.77533437 -0.47337323 285.28994016 4 292 C7.93671289 290.68776237 9.043448 288.30758855 11.125 284.9375 C11.71269165 284.00019043 11.71269165 284.00019043 12.31225586 283.04394531 C13.55733674 281.03849262 14.78253228 279.02232492 16 277 C16.38526855 276.3601416 16.77053711 275.7202832 17.16748047 275.06103516 C33.86651654 247.01494334 46.11861504 213.37931552 46.16796875 180.43359375 C46.17129715 179.63703873 46.17462555 178.8404837 46.17805481 178.01979065 C46.18308756 176.34156871 46.18546427 174.6633369 46.18530273 172.98510742 C46.18747334 170.46841096 46.2056244 167.95216516 46.22460938 165.43554688 C46.27290692 151.93392999 45.02562027 138.97036027 41.8125 125.8125 C41.59819336 124.93158691 41.38388672 124.05067383 41.16308594 123.14306641 C33.91578368 94.37424918 20.77432373 66.30863841 1 44 C0.00639635 42.82912419 -0.98429585 41.65577386 -1.97265625 40.48046875 C-9.49380345 31.55671658 -17.06590632 23.57331769 -26.1953125 16.25 C-27.93581997 14.85371546 -29.66272989 13.4400698 -31.3671875 12 C-54.30329845 -7.15203877 -82.98676882 -19.6497021 -112 -26 C-112.70688965 -26.16371094 -113.4137793 -26.32742187 -114.14208984 -26.49609375 C-139.58522588 -32.16966106 -169.81081459 -31.17132813 -195 -25 Z M-169 39 C-169.62197266 39.19867676 -170.24394531 39.39735352 -170.88476562 39.60205078 C-185.67181813 44.40748289 -198.4178441 51.52986793 -210 62 C-210.90363281 62.80953125 -211.80726563 63.6190625 -212.73828125 64.453125 C-224.55291323 75.61603047 -232.89534542 89.01432738 -239 104 C-239.39832031 104.969375 -239.79664063 105.93875 -240.20703125 106.9375 C-249.49205773 131.97577366 -245.74127209 157.61883279 -241.06640625 183.17578125 C-237.95394319 200.22956006 -237.13157837 216.30189851 -246.46875 231.81640625 C-257.21802126 247.14508643 -272.7197926 256.05338296 -291.03515625 259.53515625 C-304.03576714 261.0593658 -317.15309636 260.41824069 -330 258 C-324.84642979 269.26206667 -318.78382438 279.31598825 -311.32324219 289.20605469 C-310.20304475 290.72472825 -309.1587032 292.29890595 -308.1328125 293.8828125 C-306.5338865 296.16585609 -305.40906347 297.59994307 -303 299 C-290.4327133 300.68480725 -275.45805117 294.62023423 -265 288 C-257.4147729 282.00171954 -250.37741438 275.0819375 -245 267 C-245 266.34 -245 265.68 -245 265 C-244.21625 264.690625 -243.4325 264.38125 -242.625 264.0625 C-240.07669872 263.07124962 -240.07669872 263.07124962 -238 262 C-233.20028693 261.86798432 -229.88182454 262.3057977 -226.0625 265.3125 C-222.70148955 269.69199846 -221.40314355 272.94270263 -221.57421875 278.453125 C-223.6910991 291.11556524 -236.37360457 302.66864895 -246.14453125 310.125 C-255.65577465 316.3704129 -266.08214269 320.85698047 -277 324 C-275.34360616 327.39846323 -274.1631432 329.78579976 -271 332 C-267.63038279 332.55151419 -264.39067181 332.28145654 -261 332 C-259.89269531 331.9175 -258.78539062 331.835 -257.64453125 331.75 C-237.24234736 329.65073992 -220.33544345 321.55565431 -205 308 C-204.36449219 307.44828125 -203.72898437 306.8965625 -203.07421875 306.328125 C-189.58062222 293.79614109 -182.4678112 276.44975319 -178 259 C-174.65475769 246.23346304 -174.65475769 246.23346304 -168.75 242.625 C-163.72074855 241.48198831 -159.61544643 242.03073214 -155.1875 244.6875 C-151.32009749 248.77589694 -149.81400642 252.28317402 -149.5625 257.875 C-150.47483977 286.00547616 -167.63860243 312.74716073 -187.24609375 331.60546875 C-198.5282155 342.05815157 -211.93631635 348.1252695 -226 354 C-222.25893508 357.74106492 -216.5655458 358.73238037 -211.625 360.375 C-210.41086426 360.77912109 -209.19672852 361.18324219 -207.94580078 361.59960938 C-197.76828062 364.90419032 -187.5887336 367.45072537 -177 369 C-176.31736084 369.10022461 -175.63472168 369.20044922 -174.93139648 369.30371094 C-147.34668207 372.85650331 -105.27334649 371.68282569 -81.25244141 354.76953125 C-79.77144758 353.58854582 -78.37741175 352.30031003 -77 351 C-77 350.34 -77 349.68 -77 349 C-76.46632813 348.78859375 -75.93265625 348.5771875 -75.3828125 348.359375 C-52.55049917 335.33372739 -37.53472567 301.27730608 -30.60595703 277.28955078 C-16.15418111 222.68489544 -16.74373917 156.87332887 -41 105 C-41.66 104.34 -42.32 103.68 -43 103 C-46.15326157 104.22911565 -49.26396714 105.54297731 -52.375 106.875 C-53.26445312 107.22046875 -54.15390625 107.5659375 -55.0703125 107.921875 C-60.072251 110.03554262 -60.072251 110.03554262 -62.95776367 114.38256836 C-63.27797611 116.12846163 -63.53858579 117.88642427 -63.73632812 119.65039062 C-64.25777271 124.29704124 -66.89462603 127.64963917 -70 131 C-78.24801355 137.25080509 -86.20799391 138.38987626 -96.265625 137.38671875 C-98.57681426 137.05985055 -100.75444066 136.62554867 -103 136 C-103.30292969 136.79664063 -103.60585938 137.59328125 -103.91796875 138.4140625 C-108.58252019 150.21178953 -113.38439122 155.0667873 -124.875 160.3125 C-132.02593633 161.88570599 -137.73032717 161.79515624 -144.25 158.375 C-146.95054332 157.06725703 -146.95054332 157.06725703 -150 157 C-153.50159219 158.54085256 -156.49306724 160.81812551 -159.43457031 163.23974609 C-164.29136129 167.12120875 -167.84415407 167.66464146 -174 167 C-175.40043526 158.9085963 -175.40043526 158.9085963 -174 156 C-172.67407959 155.3187091 -171.33873455 154.65575302 -170 154 C-168.08955444 152.77244887 -166.19510503 151.51983555 -164.3125 150.25 C-163.2503125 149.54488281 -162.188125 148.83976562 -161.09375 148.11328125 C-159.20667026 146.82425329 -157.34424364 145.49676925 -155.53125 144.10546875 C-151.57662266 141.13253587 -149.10761228 139.56441567 -144.0625 140.0625 C-141.77662942 140.48580937 -140.08168395 140.95915802 -138 142 C-132.72765494 142.66457276 -132.72765494 142.66457276 -127.953125 140.765625 C-124.96964311 138.27528061 -123.24930843 136.7479253 -122 133 C-121.931009 130.93854893 -121.91532273 128.87498599 -121.9375 126.8125 C-121.94652344 125.72582031 -121.95554687 124.63914062 -121.96484375 123.51953125 C-121.97644531 122.68808594 -121.98804688 121.85664063 -122 121 C-123.01320313 120.65388672 -123.01320313 120.65388672 -124.046875 120.30078125 C-133.04473523 117.01110114 -133.04473523 117.01110114 -136 112 C-137.68268168 106.95195496 -137.56212419 102.67916054 -135.4375 97.8125 C-133.12434015 93.6391067 -130.49153649 91.55306566 -126 90 C-119.9122586 88.44843405 -115.54905184 88.73585186 -110 92 C-104.95003686 97.44864444 -104.95003686 97.44864444 -105.078125 101.42578125 C-105.13484375 102.37839844 -105.1915625 103.33101563 -105.25 104.3125 C-105.29551099 109.00174542 -105.29551099 109.00174542 -102.8125 113 C-101.4203125 113.99 -101.4203125 113.99 -100 115 C-99.2575 115.598125 -98.515 116.19625 -97.75 116.8125 C-93.75754312 118.53651547 -90.27639332 118.77065745 -86 118 C-82.36583463 115.94292526 -80.53903111 114.72774923 -79.28881836 110.72045898 C-79.05815674 109.88329346 -78.82749512 109.04612793 -78.58984375 108.18359375 C-76.79522209 103.5300242 -74.8690028 101.87646823 -70.4296875 99.65234375 C-68.25964195 98.71234224 -66.07383453 97.80803274 -63.875 96.9375 C-62.76511719 96.46634766 -61.65523438 95.99519531 -60.51171875 95.50976562 C-58.46999473 94.64557671 -56.42216833 93.79556664 -54.36669922 92.96459961 C-52.03587019 92.04983344 -52.03587019 92.04983344 -50 91 C-51.39759905 87.45481116 -51.39759905 87.45481116 -53 84 C-58.11846242 84.56871805 -62.0842818 87.03665462 -66.5 89.5 C-77.39630996 95.57859779 -77.39630996 95.57859779 -82.25 94.5 C-84 93 -84 93 -85 89.625 C-85 86 -85 86 -83.578125 84.1015625 C-79.91564629 81.11608743 -75.90251519 78.98197691 -71.75 76.75 C-70.48929687 76.06164062 -70.48929687 76.06164062 -69.203125 75.359375 C-67.13871055 74.23333075 -65.07103686 73.11380286 -63 72 C-79.5683072 52.22876709 -101.37553067 39.75294949 -127 36 C-140.92541135 35.25928663 -155.62175426 34.59050358 -169 39 Z " fill="#070607" transform="translate(400,84)"/>
<path d="M0 0 C4.67084033 2.67783139 8.07281168 5.8963293 9.640625 11.12890625 C10.37534464 16.31786371 10.44940801 21.29304436 8.078125 26.06640625 C5.14879851 29.74684209 2.84786728 31.103197 -1.359375 33.12890625 C-2.349375 33.62390625 -2.349375 33.62390625 -3.359375 34.12890625 C-9.76596025 34.93969816 -15.17309427 34.10881298 -20.359375 30.12890625 C-24.23869259 26.127183 -25.69258373 22.16526169 -25.984375 16.62890625 C-25.6729488 10.03399855 -23.05022864 5.58233163 -18.234375 1.19140625 C-12.83856712 -1.86621822 -5.78569039 -2.13610754 0 0 Z " fill="#0B0B0B" transform="translate(234.359375,164.87109375)"/>
<path d="M0 0 C4.88769347 3.29388038 9.60678612 8.01916854 10.875 13.9375 C11.17778662 20.22335028 9.56461457 24.46562232 5.546875 29.27734375 C1.38944127 33.40563659 -3.37423741 34.73919784 -9.125 34.9375 C-14.69317973 33.74735471 -18.54518019 31.4378449 -22.125 26.9375 C-25.52791712 21.1525409 -25.66480644 16.31820477 -24.125 9.9375 C-19.3911735 0.46984699 -9.95391317 -3.38433048 0 0 Z " fill="#0D0D0D" transform="translate(292.125,133.0625)"/>
<path d="M0 0 C2.2258392 1.43602529 2.77117131 2.50965281 3.875 4.875 C4.06375036 8.08375615 2.89503438 9.41896317 1 12 C-1.35708093 13.71450263 -3.62648225 15.21566771 -6.125 16.6875 C-6.82423584 17.1088623 -7.52347168 17.53022461 -8.24389648 17.96435547 C-9.72762772 18.85614371 -11.21428543 19.74307841 -12.70361328 20.62548828 C-15.01862011 22.01114514 -17.30512541 23.43614056 -19.58984375 24.87109375 C-21.08019729 25.78992576 -22.571068 26.70791955 -24.0625 27.625 C-24.75166504 28.06287842 -25.44083008 28.50075684 -26.15087891 28.9519043 C-30.58618502 31.62763879 -33.67703534 32.57887241 -39 32 C-40.9375 30.9375 -40.9375 30.9375 -42 29 C-42.6875 25.6875 -42.6875 25.6875 -42 22 C-36.52993772 16.46801608 -28.80820513 12.71318684 -22.1875 8.75 C-20.13904639 7.51608395 -18.09085706 6.28172903 -16.04296875 5.046875 C-15.14602295 4.50901367 -14.24907715 3.97115234 -13.32495117 3.41699219 C-8.36768934 0.39568087 -5.80416847 -0.78762203 0 0 Z " fill="#111111" transform="translate(248,204)"/>
<path d="M0 0 C-0.5775 0.268125 -1.155 0.53625 -1.75 0.8125 C-4.06163244 1.93012871 -4.06163244 1.93012871 -6 3.6875 C-8 5 -8 5 -10.25 4.6875 C-10.8275 4.460625 -11.405 4.23375 -12 4 C-7.96889361 0.80291562 -5.14313574 -0.13900367 0 0 Z " fill="#4C4C4C" transform="translate(239,325)"/>
<path d="M0 0 C0.66 0.33 1.32 0.66 2 1 C-1.08290155 5.22797927 -1.08290155 5.22797927 -3 7 C-5.8125 7.375 -5.8125 7.375 -8 7 C-5.4837822 4.39391727 -2.94865641 2.10618315 0 0 Z " fill="#343434" transform="translate(243,228)"/>
<path d="M0 0 C0.99 0.33 1.98 0.66 3 1 C2.360625 1.556875 1.72125 2.11375 1.0625 2.6875 C-1.19680987 5.22066561 -1.63149047 6.68341424 -2 10 C-2.33 10 -2.66 10 -3 10 C-3.36923077 3.47692308 -3.36923077 3.47692308 -1.5 1.0625 C-1.005 0.711875 -0.51 0.36125 0 0 Z " fill="#3C3C3C" transform="translate(209,223)"/>
<path d="M0 0 C0.66 0.66 1.32 1.32 2 2 C0.02 4.97 0.02 4.97 -2 8 C-3.32 7.67 -4.64 7.34 -6 7 C-5.195625 6.21625 -4.39125 5.4325 -3.5625 4.625 C-1.01309583 2.28017144 -1.01309583 2.28017144 0 0 Z " fill="#3C3B3C" transform="translate(410,369)"/>
<path d="" fill="#FFFFFF" transform="translate(0,0)"/>
<path d="" fill="#FFFFFF" transform="translate(0,0)"/>
<path d="" fill="#FFFFFF" transform="translate(0,0)"/>
<path d="" fill="#FFFFFF" transform="translate(0,0)"/>
<path d="" fill="#FFFFFF" transform="translate(0,0)"/>
<path d="" fill="#FFFFFF" transform="translate(0,0)"/>
<path d="" fill="#FFFFFF" transform="translate(0,0)"/>
<path d="" fill="#FFFFFF" transform="translate(0,0)"/>
<path d="" fill="#FFFFFF" transform="translate(0,0)"/>
<path d="" fill="#FFFFFF" transform="translate(0,0)"/>
<path d="" fill="#FFFFFF" transform="translate(0,0)"/>
<path d="" fill="#FFFFFF" transform="translate(0,0)"/>
<path d="" fill="#FFFFFF" transform="translate(0,0)"/>
<path d="" fill="#FFFFFF" transform="translate(0,0)"/>
<path d="" fill="#FFFFFF" transform="translate(0,0)"/>
<path d="" fill="#FFFFFF" transform="translate(0,0)"/>
<path d="" fill="#FFFFFF" transform="translate(0,0)"/>
<path d="" fill="#FFFFFF" transform="translate(0,0)"/>
<path d="" fill="#FFFFFF" transform="translate(0,0)"/>
<path d="" fill="#FFFFFF" transform="translate(0,0)"/>
<path d="" fill="#FFFFFF" transform="translate(0,0)"/>
<path d="" fill="#FFFFFF" transform="translate(0,0)"/>
<path d="" fill="#FFFFFF" transform="translate(0,0)"/>
<path d="" fill="#FFFFFF" transform="translate(0,0)"/>
<path d="" fill="#FFFFFF" transform="translate(0,0)"/>
<path d="" fill="#FFFFFF" transform="translate(0,0)"/>
<path d="" fill="#FFFFFF" transform="translate(0,0)"/>
<path d="" fill="#FFFFFF" transform="translate(0,0)"/>
<path d="" fill="#FFFFFF" transform="translate(0,0)"/>
<path d="" fill="#FFFFFF" transform="translate(0,0)"/>
<path d="" fill="#FFFFFF" transform="translate(0,0)"/>
<path d="" fill="#FFFFFF" transform="translate(0,0)"/>
<path d="" fill="#FFFFFF" transform="translate(0,0)"/>
<path d="" fill="#FFFFFF" transform="translate(0,0)"/>
<path d="" fill="#FFFFFF" transform="translate(0,0)"/>
<path d="" fill="#FFFFFF" transform="translate(0,0)"/>
<path d="" fill="#FFFFFF" transform="translate(0,0)"/>
<path d="" fill="#FFFFFF" transform="translate(0,0)"/>
<path d="" fill="#FFFFFF" transform="translate(0,0)"/>
<path d="" fill="#FFFFFF" transform="translate(0,0)"/>
<path d="" fill="#FFFFFF" transform="translate(0,0)"/>
<path d="" fill="#FFFFFF" transform="translate(0,0)"/>
<path d="" fill="#FFFFFF" transform="translate(0,0)"/>
<path d="" fill="#FFFFFF" transform="translate(0,0)"/>
<path d="" fill="#FFFFFF" transform="translate(0,0)"/>
<path d="" fill="#FFFFFF" transform="translate(0,0)"/>
<path d="" fill="#FFFFFF" transform="translate(0,0)"/>
<path d="" fill="#FFFFFF" transform="translate(0,0)"/>
<path d="" fill="#FFFFFF" transform="translate(0,0)"/>
<path d="" fill="#FFFFFF" transform="translate(0,0)"/>
<path d="" fill="#FFFFFF" transform="translate(0,0)"/>
<path d="" fill="#FFFFFF" transform="translate(0,0)"/>
<path d="" fill="#FFFFFF" transform="translate(0,0)"/>
<path d="" fill="#FFFFFF" transform="translate(0,0)"/>
<path d="" fill="#FFFFFF" transform="translate(0,0)"/>
<path d="" fill="#FFFFFF" transform="translate(0,0)"/>
<path d="" fill="#FFFFFF" transform="translate(0,0)"/>
<path d="" fill="#FFFFFF" transform="translate(0,0)"/>
<path d="" fill="#FFFFFF" transform="translate(0,0)"/>
<path d="" fill="#FFFFFF" transform="translate(0,0)"/>
<path d="" fill="#FFFFFF" transform="translate(0,0)"/>
<path d="" fill="#FFFFFF" transform="translate(0,0)"/>
<path d="" fill="#FFFFFF" transform="translate(0,0)"/>
<path d="" fill="#FFFFFF" transform="translate(0,0)"/>
<path d="" fill="#FFFFFF" transform="translate(0,0)"/>
<path d="" fill="#FFFFFF" transform="translate(0,0)"/>
<path d="" fill="#FFFFFF" transform="translate(0,0)"/>
<path d="" fill="#FFFFFF" transform="translate(0,0)"/>
</svg>
